<?xml version="1.0" encoding="UTF-8" standalone="no"?>
<!-- Created with Inkscape (http://www.inkscape.org/) -->

<svg
   xmlns:dc="http://purl.org/dc/elements/1.1/"
   xmlns:cc="http://creativecommons.org/ns#"
   xmlns:rdf="http://www.w3.org/1999/02/22-rdf-syntax-ns#"
   xmlns:svg="http://www.w3.org/2000/svg"
   xmlns="http://www.w3.org/2000/svg"
   xmlns:sodipodi="http://sodipodi.sourceforge.net/DTD/sodipodi-0.dtd"
   xmlns:inkscape="http://www.inkscape.org/namespaces/inkscape"
   width="64"
   height="64"
   viewBox="0 0 64 64"
   id="svg2"
   version="1.1"
   inkscape:version="0.91 r"
   sodipodi:docname="icon.svg"
   inkscape:export-filename="/home/rob/prog/ext-center/icons/128.png"
   inkscape:export-xdpi="180"
   inkscape:export-ydpi="180">
  <defs
     id="defs4" />
  <sodipodi:namedview
     id="base"
     pagecolor="#ffffff"
     bordercolor="#666666"
     borderopacity="1.0"
     inkscape:pageopacity="0.0"
     inkscape:pageshadow="2"
     inkscape:zoom="5.6"
     inkscape:cx="32.724111"
     inkscape:cy="37.784108"
     inkscape:document-units="px"
     inkscape:current-layer="layer1"
     showgrid="false"
     units="px"
     inkscape:window-width="1360"
     inkscape:window-height="741"
     inkscape:window-x="0"
     inkscape:window-y="0"
     inkscape:window-maximized="1" />
  <metadata
     id="metadata7">
    <rdf:RDF>
      <cc:Work
         rdf:about="">
        <dc:format>image/svg+xml</dc:format>
        <dc:type
           rdf:resource="http://purl.org/dc/dcmitype/StillImage" />
        <dc:title></dc:title>
      </cc:Work>
    </rdf:RDF>
  </metadata>
  <g
     inkscape:label="Layer 1"
     inkscape:groupmode="layer"
     id="layer1"
     transform="translate(0,-988.3622)">
    <text
       xml:space="preserve"
       style="font-style:normal;font-weight:normal;font-size:40px;line-height:125%;font-family:sans-serif;letter-spacing:0px;word-spacing:0px;fill:#000000;fill-opacity:1;stroke:none;stroke-width:1px;stroke-linecap:butt;stroke-linejoin:miter;stroke-opacity:1"
       x="40.178574"
       y="1023.6122"
       id="text3340"
       sodipodi:linespacing="125%"><tspan
         sodipodi:role="line"
         id="tspan3342"
         x="40.178574"
         y="1023.6122" /></text>
    <path
       id="path3346"
       d="m 46.997041,1020.1051 0,2.1818 q 0,0.4773 -0.306818,0.7841 -0.306819,0.3068 -0.78409,0.3068 l -11.999998,0 0,12 q 0,0.4773 -0.306818,0.7841 -0.306819,0.3068 -0.784091,0.3068 l -2.181816,0 q -0.477274,0 -0.784093,-0.3068 -0.306818,-0.3068 -0.306818,-0.7841 l 0,-12 -11.999995,0 q -0.477275,0 -0.784093,-0.3068 -0.306818,-0.3068 -0.306818,-0.7841 l 0,-2.1818 q 0,-0.4773 0.306818,-0.7841 0.306818,-0.3068 0.784093,-0.3068 l 11.999995,0 0,-12 q 0,-0.4773 0.306818,-0.7841 0.306819,-0.3068 0.784093,-0.3068 l 2.181816,0 q 0.477272,0 0.784091,0.3068 0.306818,0.3068 0.306818,0.7841 l 0,12 11.999998,0 q 0.477271,0 0.78409,0.3068 0.306818,0.3068 0.306818,0.7841 z m 4.363635,15.2727 0,-28.3636 q 0,-2.25 -1.602271,-3.8523 -1.602273,-1.6023 -3.852272,-1.6023 l -28.363629,0 q -2.250002,0 -3.852273,1.6023 -1.602273,1.6023 -1.602273,3.8523 l 0,28.3636 q 0,2.25 1.602273,3.8523 1.602271,1.6023 3.852273,1.6023 l 28.363629,0 q 2.249999,0 3.852272,-1.6023 1.602271,-1.6023 1.602271,-3.8523 z m 4.363636,-28.3636 0,28.3636 q 0,4.0568 -2.880682,6.9375 -2.88068,2.8807 -6.937497,2.8807 l -28.363629,0 q -4.056818,0 -6.9375,-2.8807 -2.8806803,-2.8807 -2.8806803,-6.9375 l 0,-28.3636 q 0,-4.0568 2.8806803,-6.9375 2.880682,-2.88066 6.9375,-2.88066 l 28.363629,0 q 4.056817,0 6.937497,2.88066 2.880682,2.8807 2.880682,6.9375 z"
       inkscape:connector-curvature="0" />
    <flowRoot
       xml:space="preserve"
       id="flowRoot3355"
       style="font-style:normal;font-weight:normal;font-size:40px;line-height:125%;font-family:sans-serif;letter-spacing:0px;word-spacing:0px;fill:#000000;fill-opacity:1;stroke:none;stroke-width:1px;stroke-linecap:butt;stroke-linejoin:miter;stroke-opacity:1"
       transform="translate(0,1004.3622)"><flowRegion
         id="flowRegion3357"><rect
           id="rect3359"
           width="342.85715"
           height="104.28571"
           x="-147.14285"
           y="18" /></flowRegion><flowPara
         id="flowPara3361"></flowPara></flowRoot>  </g>
</svg>
